<svg xmlns="http://www.w3.org/2000/svg" width="88.867" height="107.235" viewBox="0 0 88.867 107.235"><defs><style>.a{fill:#d4f9f5;}.b{fill:#333;}.c{fill:#00baa4;}.d{fill:#120d0c;}.e{fill:#75e7d9;}.f{fill:#008f7e;}.g{fill:#fff;}</style></defs><g transform="translate(-31.966)"><g transform="translate(86.466)"><g transform="translate(0 8.147)"><g transform="translate(0 0.633)"><path class="a" d="M204.73,38.487l-2.31-1.277c.108-.192,2.694-4.724,9.824-5.172,3.491-.22,5.2-2.39,7.358-5.14a24.261,24.261,0,0,1,4.764-4.968l1.553,2.138a22.121,22.121,0,0,0-4.239,4.464c-2.258,2.874-4.6,5.849-9.267,6.145C206.707,35.028,204.75,38.451,204.73,38.487Z" transform="translate(-202.42 -21.93)"/></g><g transform="translate(2.594)"><path class="b" d="M209.284,35.482l-.384-.212c.1-.172,2.394-4.2,8.931-4.608,3.983-.252,6.009-2.83,8.155-5.556a23.317,23.317,0,0,1,4.544-4.756l.26.356a23.136,23.136,0,0,0-4.46,4.672c-2.206,2.81-4.291,5.46-8.471,5.725C211.574,31.495,209.3,35.442,209.284,35.482Z" transform="translate(-208.9 -20.35)"/></g></g><g transform="translate(14.944)"><path class="b" d="M240.126,13.767l-.376-.224c.036-.064,3.847-6.329,10.524-7.874,6.469-1.5,8.483-5.629,8.5-5.669l.4.188c-.084.176-2.11,4.359-8.8,5.909C243.873,7.6,240.162,13.707,240.126,13.767Z" transform="translate(-239.75)"/></g><g transform="translate(6.129 15.528)"><g transform="translate(0 3.471)"><g transform="translate(0 0.528)"><path class="a" d="M219.511,57.871l-1.781-1.95c.132-.12,3.355-3.034,12.07-7.142l1.125,2.39C222.642,55.073,219.543,57.843,219.511,57.871Z" transform="translate(-217.73 -48.78)"/></g><g transform="translate(2.366)"><path class="b" d="M223.936,54.742l-.3-.324c.032-.028,3.231-2.922,11.8-6.958l.188.4C227.119,51.868,223.968,54.714,223.936,54.742Z" transform="translate(-223.64 -47.46)"/></g></g><g transform="translate(9.724)"><path class="b" d="M242.284,47.973l-.264-.352a38.165,38.165,0,0,1,8.155-4.071,12.612,12.612,0,0,0,6.077-4.76l.384.216a12.767,12.767,0,0,1-6.3,4.956A38.645,38.645,0,0,0,242.284,47.973Z" transform="translate(-242.02 -38.79)"/></g></g></g><g transform="translate(62.847 18.883)"><g transform="translate(20.56 11.869)"><path class="c" d="M194.78,88.457v3.519l20.16-11.637V76.82Z" transform="translate(-194.78 -76.82)"/></g><g transform="translate(0.404 11.869)"><path class="c" d="M144.43,76.82v3.519l20.156,11.637V88.457Z" transform="translate(-144.43 -76.82)"/></g><path class="a" d="M184.746,59.381l-20.16,11.637L144.43,59.381,164.586,47.74Z" transform="translate(-144.026 -47.512)"/><path class="b" d="M163.98,70.909l-.1-.056L143.42,59.039,163.98,47.17l.1.056,20.46,11.813Zm-19.76-11.87,19.76,11.409,19.76-11.409L163.98,47.63Z" transform="translate(-143.42 -47.17)"/><g transform="translate(0.292 15.148)"><g transform="translate(0.112 0.192)"><g transform="translate(20.156)"><path class="b" d="M194.78,97.127v3.523l20.16-11.641V85.49Z" transform="translate(-194.78 -85.49)"/></g><path class="c" d="M144.43,85.49v3.519l20.156,11.641V97.127Z" transform="translate(-144.43 -85.49)"/></g><path class="b" d="M164.418,97.1l-20.268-11.7.22-.384,20.048,11.577L184.466,85.01l.22.384Z" transform="translate(-144.15 -85.01)"/></g><g transform="translate(0.292 18.675)"><g transform="translate(0.112 0.188)"><g transform="translate(20.156)"><path class="c" d="M194.78,105.931v3.519l20.16-11.637V94.29Z" transform="translate(-194.78 -94.29)"/></g><path class="c" d="M144.43,94.29v3.523l20.156,11.637v-3.519Z" transform="translate(-144.43 -94.29)"/></g><path class="b" d="M164.418,105.9,144.15,94.2l.22-.38,20.048,11.573L184.466,93.82l.22.38Z" transform="translate(-144.15 -93.82)"/></g><g transform="translate(0.292 22.214)"><g transform="translate(0.108 0.192)"><g transform="translate(20.16)"><path class="b" d="M194.78,114.777V118.3l20.16-11.641V103.14Z" transform="translate(-194.78 -103.14)"/></g><path class="c" d="M144.42,103.14v3.519L164.58,118.3v-3.523Z" transform="translate(-144.42 -103.14)"/></g><path class="b" d="M164.418,114.746l-20.268-11.7.22-.384,20.048,11.577,20.048-11.577.22.384Z" transform="translate(-144.15 -102.66)"/></g><g transform="translate(0.292 25.741)"><g transform="translate(0.108 0.192)"><g transform="translate(20.16)"><path class="c" d="M194.78,123.587v3.519l20.16-11.637V111.95Z" transform="translate(-194.78 -111.95)"/></g><path class="c" d="M144.42,111.95v3.519l20.16,11.637v-3.519Z" transform="translate(-144.42 -111.95)"/></g><path class="b" d="M164.418,123.552l-20.268-11.7.22-.38,20.048,11.577,20.048-11.577.22.38Z" transform="translate(-144.15 -111.47)"/></g><g transform="translate(0.292 29.343)"><g transform="translate(0.112 0.188)"><g transform="translate(20.156)"><path class="b" d="M194.78,132.581V136.1l20.16-11.641V120.94Z" transform="translate(-194.78 -120.94)"/></g><path class="c" d="M144.43,120.94v3.519L164.586,136.1v-3.519Z" transform="translate(-144.43 -120.94)"/></g><path class="b" d="M164.418,132.552l-20.268-11.7.22-.38,20.048,11.573,20.048-11.573.22.38Z" transform="translate(-144.15 -120.47)"/></g><g transform="translate(14.211 0.04)"><path class="b" d="M185.269,92.174l-6.349-3.663.22-.38,6.129,3.535,19.94-11.509V59.224L185.161,47.65l.22-.38,20.268,11.7V80.409Z" transform="translate(-178.92 -47.27)"/></g><g transform="translate(10.204 5.568)"><g transform="translate(0.36 0.244)"><g transform="translate(0 0)"><path class="c" d="M181.463,61.69c-5.18.945-9.588,3.195-11.653,6.357l17.722,3.859Z" transform="translate(-169.81 -61.69)"/></g><path class="b" d="M182.416,63.3l-.953-1.605c-5.18.945-9.588,3.195-11.653,6.357l2.814.612C174.646,66.138,178.213,64.276,182.416,63.3Z" transform="translate(-169.81 -61.69)"/><g transform="translate(12.062 4.303)"><path class="d" d="M200.865,72.872a1.358,1.358,0,0,0,0,2.574,4.943,4.943,0,0,0,3.263.428L202.09,72.44A4.038,4.038,0,0,0,200.865,72.872Z" transform="translate(-199.94 -72.44)"/></g><g transform="translate(4.548 5.755)"><path class="b" d="M186.9,78.905c.829-.709.7-1.677-.384-2.306a4.919,4.919,0,0,0-4.46,0,1.7,1.7,0,0,0-.885,1.057Z" transform="translate(-181.17 -76.065)"/></g></g><path class="b" d="M187.441,71.865,168.91,67.829l.176-.268c2.026-3.1,6.329-5.452,11.8-6.453l.152-.028Zm-17.806-4.331,16.91,3.683-5.733-9.648C175.691,62.529,171.644,64.691,169.635,67.533Z" transform="translate(-168.91 -61.08)"/></g></g><g transform="translate(97.779 49.167)"><g transform="translate(0)"><g transform="translate(0 3.351)"><g transform="translate(0 0.532)"><path class="a" d="M231.793,144.273l-1.109-2.394.552,1.2-.556-1.2a35.891,35.891,0,0,0,6.757-4.536,40.045,40.045,0,0,1,7.006-4.824l1.165,2.37a38.655,38.655,0,0,0-6.489,4.492A37.6,37.6,0,0,1,231.793,144.273Z" transform="translate(-230.68 -132.52)"/></g><g transform="translate(2.166)"><path class="b" d="M236.274,140.958l-.184-.4a36.887,36.887,0,0,0,6.994-4.684,39.586,39.586,0,0,1,6.789-4.684l.2.4a39.188,39.188,0,0,0-6.7,4.632A37.7,37.7,0,0,1,236.274,140.958Z" transform="translate(-236.09 -131.19)"/></g></g><g transform="translate(7.866)"><path class="b" d="M250.6,128.969l-.268-.348c.06-.048,6.041-4.648,11.417-5.8l.092.428C256.563,124.381,250.658,128.921,250.6,128.969Z" transform="translate(-250.33 -122.82)"/></g></g></g><g transform="translate(31.966 30.193)"><g transform="translate(36.505 39.092)"><g transform="translate(0 0)"><ellipse class="b" cx="7.758" cy="4.48" rx="7.758" ry="4.48" transform="matrix(0.5, -0.866, 0.866, 0.5, 0, 13.437)"/><g transform="translate(2.058 1.651)"><path class="b" d="M165.865,191.811a3.033,3.033,0,0,1-1.537-.4,4.061,4.061,0,0,1-1.717-3.743,12.384,12.384,0,0,1,5.6-9.692,3.558,3.558,0,0,1,5.817,3.359,12.384,12.384,0,0,1-5.6,9.692A5.2,5.2,0,0,1,165.865,191.811Zm4.9-14.171a4.79,4.79,0,0,0-2.338.721,11.9,11.9,0,0,0-5.376,9.311,3.131,3.131,0,0,0,5.156,2.978,11.908,11.908,0,0,0,5.376-9.311,3.659,3.659,0,0,0-1.5-3.363A2.615,2.615,0,0,0,170.761,177.64Z" transform="translate(-162.61 -177.199)"/></g><g transform="translate(4.16 4.306)"><path class="c" d="M175.066,186.4a7.965,7.965,0,0,1-3.6,6.241c-1.99,1.149-3.6.216-3.6-2.082a7.965,7.965,0,0,1,3.6-6.241C173.452,183.174,175.066,184.107,175.066,186.4Z" transform="translate(-167.86 -183.831)"/></g></g></g><g transform="translate(17.318 42.797)"><path class="a" d="M117.839,182.33l-4.572,2.8L109.54,197.49l4.219,4.784.356.276,17.662-10.1s1.649-3.923.6-6.709S117.839,182.33,117.839,182.33Z" transform="translate(-109.54 -182.33)"/></g><g transform="translate(6.145 47.493)"><path class="b" d="M95.217,206.13a3.625,3.625,0,0,1-.268-1.117c0-.04,0-.08-.008-.12a22.82,22.82,0,0,1,.813-7.39l-7.686-3.147L81.63,196.47a11.773,11.773,0,0,1,.5,5.228l7.318,5.5-3.175.512s7.15,5.733,11.938,4.075a7.321,7.321,0,0,0,1.241-.588l13.511-7.8a7.534,7.534,0,0,0,3.467-8.879c-.052-.152-.108-.3-.168-.456l-1.825,1.241a3.075,3.075,0,0,1,.176.392,4.191,4.191,0,0,1-1.882,5.088L100.4,207.855a3.655,3.655,0,0,1-3.379.14A7.031,7.031,0,0,1,95.217,206.13Z" transform="translate(-81.63 -194.06)"/></g><g transform="translate(9.804 25.954)"><g transform="translate(0.224 0.224)"><path class="b" d="M91.826,140.936l-.04.024a.912.912,0,0,0,.008,1.585l3.247,1.817a.914.914,0,0,0,.9,0h0a.913.913,0,0,0,0-1.581l-3.207-1.837A.891.891,0,0,0,91.826,140.936Z" transform="translate(-91.329 -140.814)"/></g><path class="b" d="M95.149,144.36a1.127,1.127,0,0,1-.552-.144L91.35,142.4a1.133,1.133,0,0,1-.016-1.97l.04-.024a1.136,1.136,0,0,1,1.129,0l3.207,1.837a1.132,1.132,0,0,1,0,1.962A1.091,1.091,0,0,1,95.149,144.36ZM91.6,140.793l-.04.024a.693.693,0,0,0,0,1.2l3.247,1.817a.7.7,0,0,0,.685,0,.692.692,0,0,0,0-1.2L92.287,140.8a.674.674,0,0,0-.689,0Z" transform="translate(-90.77 -140.255)"/></g><g transform="translate(46.808 33.039)"><g transform="translate(0.22 0.22)"><path class="e" d="M184.159,160.183l4.123,2.574a.854.854,0,0,0,1.141-.216h0a.857.857,0,0,0-.22-1.229l-4.119-2.67a.856.856,0,0,0-1.321.681l0,.092A.866.866,0,0,0,184.159,160.183Z" transform="translate(-183.758 -158.503)"/></g><path class="b" d="M188.4,162.777a1.083,1.083,0,0,1-.568-.16l-4.123-2.574a1.078,1.078,0,0,1-.5-.961l0-.092a1.081,1.081,0,0,1,1.665-.861L189,160.8a1.077,1.077,0,0,1,.276,1.545A1.088,1.088,0,0,1,188.4,162.777Zm-4.46-3.11,4.123,2.574a.643.643,0,0,0,.849-.16.621.621,0,0,0,.116-.492.63.63,0,0,0-.28-.42l-4.119-2.67a.643.643,0,0,0-.641-.032.632.632,0,0,0-.344.536l0,.092a.65.65,0,0,0,.3.572Z" transform="translate(-183.208 -157.954)"/></g><g transform="translate(43.319 36.148)"><path class="a" d="M175.8,173.455l4.688-2.7a1.1,1.1,0,0,0,.532-1.2c-.252-1.037-1.137-2.762-4.2-3.687C172.26,164.488,175.8,173.455,175.8,173.455Z" transform="translate(-174.49 -165.721)"/></g><g transform="translate(29.456 28.614)"><g transform="translate(0.214 0.268)"><path class="b" d="M160.17,150.917s-4.351,5.028-4.76,11.365c0,0,.516,1.713-10.448,8.01s1.269-15.144,1.269-15.144l7.562-7.578,3.331,1.585Z" transform="translate(-140.397 -147.57)"/></g><path class="b" d="M141.491,171.272a1.514,1.514,0,0,1-1.121-.416c-2.418-2.414,4.548-14.812,5.348-16.221l.036-.048,7.674-7.686,3.471,1.653,3.295,1.9-.176.2c-.044.048-4.3,5.036-4.7,11.209.056.436-.444,2.4-10.56,8.215A7.241,7.241,0,0,1,141.491,171.272Zm4.6-16.389c-2.142,3.759-7.246,13.827-5.4,15.665.568.568,1.9.276,3.851-.845,10.348-5.945,10.352-7.742,10.348-7.758l-.012-.04,0-.04c.36-5.624,3.835-10.276,4.644-11.289l-2.822-1.629-3.175-1.509Z" transform="translate(-139.863 -146.9)"/></g><g transform="translate(22.009 21.19)"><g transform="translate(0.22 0.222)"><path class="c" d="M143.551,132.292c-2.7-2.458-8.447-3.307-9-3.383a.052.052,0,0,0-.056.036l-1.745,6.025c0,.008-.008.02-.016.024-.332.284-7.81,6.721-8.743,9.087-.1.256-.2.584-.312.961-1.2,4.592,1.065,5.188,1.561,5.264a.055.055,0,0,1,.036.088l-3.455,4.7a.065.065,0,0,0-.012.036c.156,1.117,1.305,6.845,8.5,5.885a.062.062,0,0,0,.044-.032l3.255-8.271s0,0,0-.012c.016-.156.544-5.252,8.5-10.376C148.043,138.513,146.39,134.874,143.551,132.292Z" transform="translate(-121.81 -128.908)"/></g><path class="b" d="M128.418,161.011a6.887,6.887,0,0,1-7.146-6.181l-.012-.088.064-.108,3.307-4.5a2.3,2.3,0,0,1-1.3-.969c-.645-.977-.7-2.5-.18-4.512a9.928,9.928,0,0,1,.32-.985c.933-2.366,8.106-8.571,8.767-9.139l1.729-5.977a.274.274,0,0,1,.3-.2c.645.088,6.377.949,9.115,3.439h0c1.885,1.713,2.77,3.443,2.626,5.132-.152,1.837-1.529,3.6-4.087,5.252-7.846,5.052-8.383,10-8.4,10.212l-.016.068-3.259,8.271a.281.281,0,0,1-.22.172A12.849,12.849,0,0,1,128.418,161.011Zm-6.7-6.173c.188,1.241,1.393,6.493,8.147,5.641l3.211-8.155c.052-.472.8-5.488,8.6-10.512,2.438-1.569,3.747-3.223,3.887-4.916.128-1.549-.709-3.15-2.486-4.772h0c-2.494-2.27-7.646-3.147-8.735-3.307l-1.721,5.945-.064.068c-2.686,2.3-7.95,7.142-8.687,9-.092.236-.2.552-.3.941-.484,1.857-.44,3.295.124,4.155a1.85,1.85,0,0,0,1.257.833.273.273,0,0,1,.212.164.287.287,0,0,1-.032.272Z" transform="translate(-121.26 -128.355)"/></g><g transform="translate(19.454 22.201)"><path class="f" d="M119.526,146.224c.1-.376.212-.7.312-.961a10.661,10.661,0,0,1,1.934-2.622l.072-.909a1.52,1.52,0,0,1,1.129-1.349A19.381,19.381,0,0,0,128.7,137.8c3.571-2.362,2.474-6.541,2.474-6.541l-4.612-.376s-7.754,4.063-10.1,7.858-1.405,6.1-1.405,6.1l1.405,9.44,4.472-2.742a.046.046,0,0,0-.012-.084C120.239,151.284,118.43,150.432,119.526,146.224Z" transform="translate(-114.878 -130.88)"/></g><g transform="translate(19.23 21.977)"><path class="b" d="M115.963,154.3l-1.453-9.744c-.1-.284-.833-2.6,1.433-6.277a12.856,12.856,0,0,1,2.434-2.726l.292.328a12.378,12.378,0,0,0-2.35,2.63c-2.246,3.639-1.4,5.885-1.389,5.909l.012.048,1.357,9.107,3.875-2.374a2.346,2.346,0,0,1-1.085-.973c-.58-.981-.617-2.462-.112-4.4a9.926,9.926,0,0,1,.32-.985,10.3,10.3,0,0,1,1.926-2.634l.068-.833a1.747,1.747,0,0,1,1.293-1.545,19.265,19.265,0,0,0,5.665-2.554,5.871,5.871,0,0,0,2.414-6.153l-4.388-.36a50.2,50.2,0,0,0-5.841,3.695l-.264-.352a51.225,51.225,0,0,1,5.953-3.763l.056-.028,4.832.4.04.152c.012.044,1.1,4.359-2.566,6.781a19.7,19.7,0,0,1-5.8,2.614,1.294,1.294,0,0,0-.965,1.153l-.08.981-.052.056a10.3,10.3,0,0,0-1.894,2.558c-.092.236-.2.552-.3.941-.472,1.817-.452,3.187.068,4.063a1.9,1.9,0,0,0,1.165.893.27.27,0,0,1,.2.224.283.283,0,0,1-.128.276Z" transform="translate(-114.316 -130.32)"/></g><g transform="translate(27.818 49.19)"><g transform="translate(0.223 0.264)"><path class="c" d="M138.094,202.471l-1.449,1.813a1.456,1.456,0,0,0-.132,1.617h0a1.452,1.452,0,0,0,1.265.741h.092a1.427,1.427,0,0,0,.452-.072c1.053-.348,4.848-2.154,5.817-3.779.921-1.549-.08-2.634-1.681-3.831l-.132.068A12.868,12.868,0,0,0,138.094,202.471Z" transform="translate(-136.328 -198.96)"/></g><path class="b" d="M137.535,206.467h-.092a1.676,1.676,0,0,1-1.457-.853,1.659,1.659,0,0,1,.152-1.861l1.449-1.813a13.072,13.072,0,0,1,4.3-3.507l.256-.132.108.084c1.465,1.1,2.81,2.318,1.737,4.119-1.041,1.757-5.016,3.571-5.937,3.879A1.57,1.57,0,0,1,137.535,206.467Zm.4-4.255-1.449,1.813a1.232,1.232,0,0,0,.961,2h.092a1.244,1.244,0,0,0,.384-.06c1.053-.348,4.768-2.122,5.7-3.683.785-1.321.044-2.278-1.517-3.463l-.012,0a12.61,12.61,0,0,0-4.155,3.387Z" transform="translate(-135.77 -198.3)"/></g><g transform="translate(30.552 42.129)"><path class="a" d="M143.16,182.527s.909,4.984.689,6.541-.985,2.706.276,3.042c.689.184,2.97-1.3,3.022-2.238.1-1.922-.16-8.543-.16-8.543Z" transform="translate(-142.936 -181.062)"/><path class="b" d="M143.917,191.921a.856.856,0,0,1-.18-.02c-1.121-.3-.9-1.2-.657-2.15a10.808,10.808,0,0,0,.236-1.113c.212-1.505-.677-6.425-.685-6.477l-.032-.172,4.239-1.329.012.26c.012.272.264,6.653.16,8.563-.036.665-.9,1.365-1.277,1.633A3.858,3.858,0,0,1,143.917,191.921Zm-.865-9.66c.16.909.861,5.008.657,6.429a10.927,10.927,0,0,1-.244,1.153c-.26,1.045-.34,1.477.372,1.665a2.934,2.934,0,0,0,1.657-.725c.657-.476,1.093-1,1.113-1.333.092-1.673-.1-7.018-.152-8.263Z" transform="translate(-142.6 -180.66)"/></g><g transform="translate(30.712 42.101)"><path class="b" d="M144.161,191.9a.691.691,0,0,1-.188-.024l.112-.424a3,3,0,0,0,1.641-.721c.653-.472,1.085-.989,1.1-1.317.092-1.661-.1-6.942-.148-8.235l-3.547,1.113-.132-.42,4.1-1.281.012.288c.012.272.264,6.653.16,8.563-.036.673-.909,1.377-1.281,1.645A3.843,3.843,0,0,1,144.161,191.9Z" transform="translate(-143 -180.59)"/></g><g transform="translate(28.994 25.431)"><path class="f" d="M151.738,139.142s.408,6.093-2.462,8.05c-1.761,1.2-3.2,2.2-4.055,2.786a1.816,1.816,0,0,0-.777,1.609l.3,4.8a1.42,1.42,0,0,1-1.009,1.445,5.567,5.567,0,0,1-2.666.208,1.416,1.416,0,0,1-1.113-1.077,49.027,49.027,0,0,1-1.253-7.318c.056-1.813,6.341-9.115,6.341-9.115l2.346-1.577Z" transform="translate(-138.707 -138.95)"/></g><g transform="translate(32.77 25.239)"><path class="b" d="M148.188,158.042l-.048-.436a6.2,6.2,0,0,0,1.185-.248,1.2,1.2,0,0,0,.853-1.221l-.3-4.8a2.051,2.051,0,0,1,.873-1.805c.853-.592,2.3-1.589,4.055-2.786,2.454-1.673,2.414-6.609,2.378-7.658l-4.075-.176-2.29,1.537-.244-.364,2.406-1.617,4.616.2.012.2c.016.252.38,6.241-2.558,8.247-1.757,1.2-3.2,2.194-4.055,2.786a1.583,1.583,0,0,0-.685,1.417l.3,4.8a1.636,1.636,0,0,1-1.161,1.669A7.209,7.209,0,0,1,148.188,158.042Z" transform="translate(-148.14 -138.47)"/></g><g transform="translate(11.665 14.919)"><path class="a" d="M106.82,113.23a30.391,30.391,0,0,0-1.982,4.512s-4.876,3.711-6.894,6.477c0,0-3.3,1.737-1.505,3.387,1.926,1.769,3.159-1.065,3.415-2.238,0,0,5.753-4.183,7.4-5.869a31.907,31.907,0,0,0,3.735-5.689Z" transform="translate(-95.712 -113.014)"/><path class="b" d="M97.354,128.046a2,2,0,0,1-1.333-.62,1.563,1.563,0,0,1-.588-1.381c.156-1.193,1.8-2.146,2.094-2.306,1.938-2.63,6.305-6.021,6.853-6.441a31.232,31.232,0,0,1,1.978-4.488l.068-.12,4.592.641-.132.252a31.606,31.606,0,0,1-3.767,5.737,92.566,92.566,0,0,1-7.366,5.845c-.176.729-.813,2.454-1.962,2.818A1.668,1.668,0,0,1,97.354,128.046Zm9.287-14.924a30.132,30.132,0,0,0-1.9,4.351l-.02.06-.052.04c-.048.036-4.876,3.727-6.853,6.433l-.028.036-.04.02c-.016.008-1.785.953-1.922,2.03a1.171,1.171,0,0,0,.46,1.033,1.4,1.4,0,0,0,1.373.464c.9-.284,1.521-1.745,1.709-2.6l.016-.076.06-.044c.056-.04,5.757-4.191,7.378-5.845a29.7,29.7,0,0,0,3.567-5.388Z" transform="translate(-95.42 -112.69)"/></g><g transform="translate(11.665 14.907)"><path class="b" d="M97.317,128.048a2.022,2.022,0,0,1-1.349-.625,1.515,1.515,0,0,1-.548-1.137,2.758,2.758,0,0,1,1.021-1.837l.3.32a2.45,2.45,0,0,0-.881,1.513,1.073,1.073,0,0,0,.408.813,1.378,1.378,0,0,0,1.357.46c.841-.268,1.5-1.669,1.693-2.582l.016-.084.068-.048c.056-.04,5.757-4.191,7.374-5.845a29.349,29.349,0,0,0,3.547-5.36l-3.863-.54.06-.436,4.484.624-.144.276a31.458,31.458,0,0,1-3.771,5.741,93.042,93.042,0,0,1-7.366,5.845c-.176.737-.817,2.458-1.97,2.826A1.252,1.252,0,0,1,97.317,128.048Z" transform="translate(-95.42 -112.66)"/></g><g transform="translate(22.227 10.316)"><path class="f" d="M123.76,102.2s-1.2,2.066-1.873,3.579a.917.917,0,0,0,.016.793,4.237,4.237,0,0,0,3.2,1.986.932.932,0,0,0,.885-.3,4.8,4.8,0,0,0,.781-5.4C125.109,99.541,123.76,102.2,123.76,102.2Z" transform="translate(-121.805 -101.191)"/></g><g transform="translate(23.983 10.099)"><path class="b" d="M127.907,108.468a1.364,1.364,0,0,1-.22-.02,6.7,6.7,0,0,1-1.229-.352l.16-.408a6.611,6.611,0,0,0,1.153.328.715.715,0,0,0,.677-.232,4.6,4.6,0,0,0,.749-5.152c-.5-1.009-1.025-1.541-1.513-1.541h0c-.629,0-1.093.877-1.1.889l-.392-.2c.024-.044.584-1.129,1.489-1.129h0c.673,0,1.313.6,1.9,1.785a5.025,5.025,0,0,1-.809,5.637A1.147,1.147,0,0,1,127.907,108.468Z" transform="translate(-126.19 -100.65)"/></g><g transform="translate(30.78 5.167)"><path class="e" d="M143.883,88.33l5.484,1.505a6.4,6.4,0,0,1,3.062,1.865c1.709,2.154,4.644,6.281,5.5,10.136,1.237,5.544-8.751,2.73-8.751,2.73l-2.706-12.23L143.17,91.02Z" transform="translate(-143.17 -88.33)"/></g><g transform="translate(30.512 4.899)"><path class="b" d="M153.657,105.1a20.9,20.9,0,0,1-4.936-.725l-.128-.036L145.883,92.1,142.5,90.75l.821-3.09,5.064,1.389-.116.424L143.633,88.2l-.609,2.286,3.235,1.285,2.706,12.214c.877.228,6.089,1.5,7.866-.184a2.308,2.308,0,0,0,.484-2.318,25.014,25.014,0,0,0-4.091-8.223c-.188-.264-.709-.957-.961-1.3l-.084-.112.352-.264.084.112c.256.344.781,1.041.969,1.309a25.423,25.423,0,0,1,4.163,8.383,2.708,2.708,0,0,1-.612,2.734A5.133,5.133,0,0,1,153.657,105.1Z" transform="translate(-142.5 -87.66)"/></g><g transform="translate(26.296 7.391)"><g transform="translate(0.221 0.206)"><path class="c" d="M132.52,99.125a7.557,7.557,0,0,0,1.946,4.7,9.036,9.036,0,0,1,1.958,5.452s.376,1.689,4.656,4.135,7.038.188,7.494-.5c0,0,1.273-8.731-4.5-14.868s-10.232-2.662-10.232-2.662Z" transform="translate(-132.52 -94.402)"/></g><path class="c" d="M144.483,114.42a7.735,7.735,0,0,1-3.847-1.133c-4.311-2.466-4.744-4.2-4.76-4.279l0-.024v-.024a8.876,8.876,0,0,0-1.906-5.3,7.7,7.7,0,0,1-2-4.844l.012-.068,1.341-3.807.052-.04c.048-.036,4.684-3.527,10.528,2.682,5.777,6.145,4.568,14.964,4.556,15.052l-.036.092A5.038,5.038,0,0,1,144.483,114.42Zm-8.175-5.488c.06.184.673,1.761,4.544,3.971,4.031,2.306,6.661.308,7.174-.388.088-.721.957-8.891-4.448-14.636-5.252-5.584-9.391-3.014-9.888-2.674l-1.285,3.647a7.457,7.457,0,0,0,1.89,4.512A9.139,9.139,0,0,1,136.309,108.932Z" transform="translate(-131.969 -93.886)"/></g><g transform="translate(21.517 0.187)"><path class="f" d="M120.03,80.87a5.73,5.73,0,0,1,5.641-4.976c5.092-.176,6.653,5.544,3.835,9.76S122.512,88.9,121.5,88.06s-.729-4.283-.729-4.283Z" transform="translate(-120.03 -75.89)"/></g><g transform="translate(21.046 5.167)"><path class="a" d="M119.325,88.33a4.781,4.781,0,0,0,.212,4.476c.993,1.489,4.784,1.593,6.681,0a2.456,2.456,0,0,0,.7-3.407.941.941,0,0,0-.973-.444,14.7,14.7,0,0,1-3.495.2A7.643,7.643,0,0,1,119.325,88.33Z" transform="translate(-118.854 -88.33)"/></g><g transform="translate(21.549 5.563)"><path class="b" d="M123.337,94.776a6.359,6.359,0,0,1-.9-.06,3.259,3.259,0,0,1-2.33-1.193l.364-.244a2.919,2.919,0,0,0,2.026,1,5.858,5.858,0,0,0,4.331-1.045,2.237,2.237,0,0,0,.653-3.126.73.73,0,0,0-.745-.34l-.076-.432a1.167,1.167,0,0,1,1.2.548,2.693,2.693,0,0,1-.745,3.687A6.041,6.041,0,0,1,123.337,94.776Z" transform="translate(-120.11 -89.319)"/></g><g transform="translate(30.418 8.502)"><path class="b" d="M145.109,105.811a3.385,3.385,0,0,1-2.7-2.518,5.926,5.926,0,0,1,1.685-5.713,3.491,3.491,0,0,1,3.347-.765,2.911,2.911,0,0,1,1.777,1.569l.3.608a7.179,7.179,0,0,0-1.593-.985,3.039,3.039,0,0,0-3.263,2.83c-.108,2.638,1.3,3.227,1.3,3.227Z" transform="translate(-142.265 -96.66)"/></g><g transform="translate(38.727 40.055)"><g transform="translate(0.22 0.224)"><path class="a" d="M163.57,178.651v.044a.856.856,0,0,0,1.3.737l3.01-1.793a.862.862,0,0,0,.42-.737h0a.857.857,0,0,0-1.293-.741l-3.01,1.753A.842.842,0,0,0,163.57,178.651Z" transform="translate(-163.57 -176.041)"/></g><path class="b" d="M164.1,179.44a1.085,1.085,0,0,1-1.077-1.081v-.044a1.077,1.077,0,0,1,.536-.933l3.01-1.753a1.077,1.077,0,0,1,1.621.933,1.092,1.092,0,0,1-.524.929l-3.01,1.793A1.084,1.084,0,0,1,164.1,179.44Zm3.01-3.519a.613.613,0,0,0-.32.088l-3.01,1.753a.635.635,0,0,0-.316.552v.044a.64.64,0,0,0,.969.548l3.01-1.793a.644.644,0,0,0,.312-.548.626.626,0,0,0-.32-.552A.643.643,0,0,0,167.107,175.921Z" transform="translate(-163.02 -175.481)"/></g><g transform="translate(26.525 36.13)"><g transform="translate(0.224 0.224)"><path class="b" d="M133.6,166.356l-.04.024a.912.912,0,0,0,.008,1.585l3.247,1.817a.914.914,0,0,0,.9,0h0a.913.913,0,0,0,0-1.581L134.5,166.36A.891.891,0,0,0,133.6,166.356Z" transform="translate(-133.099 -166.234)"/></g><path class="b" d="M136.919,169.78a1.127,1.127,0,0,1-.552-.144l-3.247-1.817a1.133,1.133,0,0,1-.016-1.97l.04-.024a1.136,1.136,0,0,1,1.129,0l3.207,1.837a1.132,1.132,0,0,1,0,1.962A1.091,1.091,0,0,1,136.919,169.78Zm-3.551-3.571-.04.024a.693.693,0,0,0,0,1.2l3.247,1.817a.7.7,0,0,0,.685,0,.692.692,0,0,0,0-1.2l-3.207-1.837a.683.683,0,0,0-.689,0Z" transform="translate(-132.54 -165.675)"/></g><g transform="translate(5.817 35.547)"><g transform="translate(0.221 0.244)"><path class="c" d="M95.078,167.472l1.069,1.305a4.686,4.686,0,0,1,.969,3.9l-1.385,6.809a3.8,3.8,0,0,1-1.825,2.538l-1.141.661a9,9,0,0,1-6.537.985h0a6.171,6.171,0,0,1-3.935-2.87l-.252-.424a4.813,4.813,0,0,1-.552-3.535h0a14.5,14.5,0,0,1,1.661-4.155l2.178-3.663a9.267,9.267,0,0,1,3.839-3.567l1.261-.628Z" transform="translate(-81.365 -164.83)"/></g><path class="b" d="M87.917,183.76a9.1,9.1,0,0,1-2.07-.236,6.424,6.424,0,0,1-4.075-2.97l-.252-.424a5.017,5.017,0,0,1-.58-3.695,14.562,14.562,0,0,1,1.689-4.219l2.178-3.663a9.474,9.474,0,0,1,3.931-3.651l1.365-.681,4.82,2.75,1.069,1.305A4.87,4.87,0,0,1,97,172.359l-1.385,6.809a4.022,4.022,0,0,1-1.934,2.686l-1.141.661A9.267,9.267,0,0,1,87.917,183.76Zm2.166-19.043-1.157.576a9.033,9.033,0,0,0-3.747,3.483L83,172.439a14.153,14.153,0,0,0-1.637,4.091,4.575,4.575,0,0,0,.528,3.371l.252.424a5.978,5.978,0,0,0,3.8,2.766,8.8,8.8,0,0,0,6.377-.961l1.141-.661a3.586,3.586,0,0,0,1.721-2.394l1.385-6.809a4.44,4.44,0,0,0-.925-3.719l-1.045-1.273Z" transform="translate(-80.812 -164.22)"/></g><g transform="translate(11.972 41.559)"><g transform="translate(0.224 0.222)"><path class="a" d="M97.132,179.915l-.032.02a.769.769,0,0,0,.076,1.337l1.946.969a.77.77,0,0,0,.761-.044h0a.77.77,0,0,0-.068-1.333l-1.918-.989A.768.768,0,0,0,97.132,179.915Z" transform="translate(-96.747 -179.792)"/></g><path class="b" d="M99.122,182.209a.95.95,0,0,1-.44-.1l-1.946-.969a.992.992,0,0,1-.1-1.721l.152.164-.12-.184a.985.985,0,0,1,.985-.048l1.914.989a.983.983,0,0,1,.54.833.971.971,0,0,1-.452.881A.957.957,0,0,1,99.122,182.209Zm-2.21-2.442-.032.02a.551.551,0,0,0,.052.957l1.946.969a.562.562,0,0,0,.544-.032.553.553,0,0,0-.048-.957l-1.914-.989A.559.559,0,0,0,96.912,179.767Z" transform="translate(-96.186 -179.237)"/></g><g transform="translate(12.478 37.905)"><g transform="translate(0.224 0.276)"><path class="f" d="M105.76,183.05l1.385-6.809a4.686,4.686,0,0,0-.969-3.9l-1.069-1.305-.412-.232-.524.617-6.161,14.2a1.972,1.972,0,0,0,2.106,1.649,9.013,9.013,0,0,0,2.67-1.013l1.141-.661A3.784,3.784,0,0,0,105.76,183.05Z" transform="translate(-98.01 -170.8)"/></g><path class="b" d="M99.652,187.072a2.211,2.211,0,0,1-2.194-1.833l-.008-.064,6.217-14.307.641-.757.633.376,1.069,1.305a4.87,4.87,0,0,1,1.013,4.083l-1.385,6.809a4.03,4.03,0,0,1-1.93,2.686l-1.141.661a9.1,9.1,0,0,1-2.738,1.037C99.768,187.068,99.712,187.072,99.652,187.072Zm-1.745-1.845a1.743,1.743,0,0,0,1.865,1.405,8.768,8.768,0,0,0,2.574-.985l1.141-.661a3.6,3.6,0,0,0,1.721-2.394l1.385-6.809a4.455,4.455,0,0,0-.921-3.719l-1.045-1.273-.216-.124-.384.452Z" transform="translate(-97.45 -170.11)"/></g><g transform="translate(5.813 35.944)"><g transform="translate(0.224 0.288)"><path class="f" d="M89.459,165.93l-.3.152a9.316,9.316,0,0,0-3.839,3.567l-2.178,3.663a14.32,14.32,0,0,0-1.661,4.155,4.7,4.7,0,0,0-.112,1.249c.416.264,1,.32,1.629-.629,1.173-1.8,6.821-11.549,6.821-11.549Z" transform="translate(-81.36 -165.93)"/></g><path class="b" d="M81.557,178.669a1.232,1.232,0,0,1-.649-.2l-.1-.06,0-.116a5.018,5.018,0,0,1,.12-1.305,14.607,14.607,0,0,1,1.689-4.219l2.178-3.663a9.488,9.488,0,0,1,3.927-3.651l.492-.244.516.9-.064.108c-.056.1-5.665,9.78-6.825,11.557C82.386,178.465,81.934,178.669,81.557,178.669Zm-.312-.516c.224.116.677.22,1.225-.62,1.089-1.669,6.125-10.348,6.749-11.429l-.184-.316-.12.06a9.033,9.033,0,0,0-3.747,3.483l-2.178,3.663a14.154,14.154,0,0,0-1.637,4.091A4.486,4.486,0,0,0,81.245,178.152Z" transform="translate(-80.801 -165.21)"/></g><g transform="translate(12.796 27.783)"><g transform="translate(0.224 0.228)"><path class="b" d="M98.907,146.561a2.171,2.171,0,0,0,.544,2.17,1.456,1.456,0,0,1,.34,1.149c-.088,1.153-1.425,4.283,2.022,6.273a4.9,4.9,0,0,0,5.392-.236,1.842,1.842,0,0,1,1.793-.16c1.4.637,3.871,1.581,4.824.789,1.357-1.129,1.994-2.21.949-3.034s-12.486-7.4-12.486-7.4-2.446-1.717-3.271.156C98.975,146.369,98.939,146.465,98.907,146.561Z" transform="translate(-98.805 -145.394)"/></g><path class="b" d="M103.963,156.733a5.115,5.115,0,0,1-2.594-.733c-3.034-1.753-2.518-4.4-2.242-5.817a6.044,6.044,0,0,0,.108-.665,1.238,1.238,0,0,0-.284-.981,2.381,2.381,0,0,1-.592-2.394,3.087,3.087,0,0,1,.12-.312,1.576,1.576,0,0,1,1.021-.945,3.73,3.73,0,0,1,2.578.7c.452.256,11.449,6.581,12.494,7.406a1.4,1.4,0,0,1,.6,1.093c.008.665-.5,1.413-1.549,2.286-.993.825-3.3.04-5.056-.761a1.605,1.605,0,0,0-1.577.144A5.492,5.492,0,0,1,103.963,156.733Zm-3.979-11.461a1.378,1.378,0,0,0-.364.048,1.13,1.13,0,0,0-.737.7,2.39,2.39,0,0,0-.1.276h0a1.941,1.941,0,0,0,.5,1.95,1.655,1.655,0,0,1,.4,1.313,6.689,6.689,0,0,1-.116.717c-.272,1.405-.733,3.755,2.03,5.352a4.722,4.722,0,0,0,5.16-.228,2.059,2.059,0,0,1,2.006-.18c2.294,1.045,3.967,1.341,4.592.821.929-.773,1.4-1.425,1.389-1.942a.979.979,0,0,0-.436-.753c-1.021-.8-12.342-7.314-12.458-7.378A3.917,3.917,0,0,0,99.984,145.272Z" transform="translate(-98.244 -144.825)"/></g><g transform="translate(16.297 29.572)"><path class="f" d="M106.99,151.526s2.194-2.926,4.968-2.078a3.346,3.346,0,0,1,1.757,5.436c-1.429,1.705-4.672,2.09-4.672,2.09Z" transform="translate(-106.99 -149.294)"/></g><g transform="translate(16.049 29.495)"><path class="b" d="M108.528,157.066l-2.158-5.725.072-.1a7.137,7.137,0,0,1,1.781-1.593,4.4,4.4,0,0,1,1.309-.552l.1.428a4.118,4.118,0,0,0-1.181.5,6.905,6.905,0,0,0-1.585,1.389l1.95,5.168c.673-.108,3.187-.588,4.359-1.99a3.136,3.136,0,0,0-.116-4.2l.312-.308a3.539,3.539,0,0,1,.144,4.788c-1.469,1.753-4.68,2.15-4.816,2.166Z" transform="translate(-106.37 -149.1)"/></g><g transform="translate(15.251 30.039)"><g transform="translate(0.22 0.222)"><path class="g" d="M110.665,155.734c-.825,1.817-2.69,2.742-4.167,2.074s-2.006-2.686-1.181-4.5,2.69-2.742,4.167-2.074S111.49,153.921,110.665,155.734Z" transform="translate(-104.928 -151.017)"/></g><path class="g" d="M107.185,157.911a2.663,2.663,0,0,1-1.1-.236,2.9,2.9,0,0,1-1.577-1.966,4.433,4.433,0,0,1,2.226-4.9,2.882,2.882,0,0,1,2.518-.108c1.585.721,2.166,2.87,1.293,4.792A3.884,3.884,0,0,1,107.185,157.911Zm.949-7.01a2.71,2.71,0,0,0-1.209.3,4,4,0,0,0-2,4.4,2.457,2.457,0,0,0,1.333,1.677c1.365.617,3.1-.264,3.875-1.966s.292-3.591-1.073-4.211A2.3,2.3,0,0,0,108.133,150.9Z" transform="translate(-104.377 -150.461)"/></g><g transform="translate(25.763 17.997)"><path class="a" d="M142.856,121.4a65.049,65.049,0,0,1,.6,8.111,2.55,2.55,0,0,1-.761,1.733c-1.053,1.033-3.106,3.026-4.4,4.107a22.282,22.282,0,0,0-3.6,4.42s-.012,3.211-2.194,2.806-1.4-3.451,0-4.167a64.307,64.307,0,0,1,4.532-6.8,13.914,13.914,0,0,1,2.406-2.286,1.051,1.051,0,0,0,.352-1.229,15.631,15.631,0,0,1-.873-7.146Z" transform="translate(-130.941 -120.722)"/><path class="b" d="M132.563,142.47a2.065,2.065,0,0,1-.4-.04,1.726,1.726,0,0,1-1.5-1.525,3.186,3.186,0,0,1,1.385-2.99,63.551,63.551,0,0,1,4.524-6.777,13.906,13.906,0,0,1,2.442-2.318.857.857,0,0,0,.288-1,15.811,15.811,0,0,1-.885-7.238l.02-.2,4.3.492.02.156a64.647,64.647,0,0,1,.6,8.143,2.744,2.744,0,0,1-.821,1.869c-1.093,1.077-3.122,3.042-4.408,4.119a21.68,21.68,0,0,0-3.527,4.327,3.881,3.881,0,0,1-.977,2.614A1.623,1.623,0,0,1,132.563,142.47Zm6.229-21.641a15.28,15.28,0,0,0,.881,6.849,1.264,1.264,0,0,1-.42,1.465,13.7,13.7,0,0,0-2.37,2.25,64.2,64.2,0,0,0-4.516,6.773l-.028.052-.052.028a2.762,2.762,0,0,0-1.225,2.606,1.335,1.335,0,0,0,1.173,1.189,1.287,1.287,0,0,0,1.125-.248,3.646,3.646,0,0,0,.833-2.366v-.056l.028-.048a22.2,22.2,0,0,1,3.639-4.472c1.277-1.065,3.295-3.022,4.383-4.1a2.33,2.33,0,0,0,.7-1.6,62.644,62.644,0,0,0-.572-7.922Z" transform="translate(-130.636 -120.38)"/></g><g transform="translate(25.743 18.009)"><path class="b" d="M132.533,142.508a2.1,2.1,0,0,1-.408-.04,1.791,1.791,0,0,1-1.213-.741,2.281,2.281,0,0,1-.268-1.733l.432.084a1.864,1.864,0,0,0,.2,1.4,1.37,1.37,0,0,0,.929.556,1.279,1.279,0,0,0,1.109-.24,3.642,3.642,0,0,0,.829-2.35v-.06l.032-.052a22.26,22.26,0,0,1,3.643-4.476c1.273-1.065,3.295-3.022,4.383-4.1a2.331,2.331,0,0,0,.7-1.581,61.518,61.518,0,0,0-.572-7.9l-3.767-.432.048-.436,4.107.472.024.168a64.662,64.662,0,0,1,.6,8.147,2.764,2.764,0,0,1-.829,1.882c-1.093,1.077-3.123,3.042-4.412,4.119a21.6,21.6,0,0,0-3.519,4.319,3.9,3.9,0,0,1-.985,2.622A1.618,1.618,0,0,1,132.533,142.508Z" transform="translate(-130.585 -120.41)"/></g><g transform="translate(32.324 10.735)"><path class="f" d="M148.821,111.322a.992.992,0,0,1-.837-.685c-.6-1.841-2.158-7.486.733-8.3,3.2-.9,4.287,4.748,4.319,7.41a1,1,0,0,1-.564.909A6.67,6.67,0,0,1,148.821,111.322Z" transform="translate(-147.025 -102.238)"/></g><g transform="translate(33.094 10.514)"><path class="b" d="M151.4,111.208l-.048-.436a6.644,6.644,0,0,0,2.182-.645.775.775,0,0,0,.44-.709c-.024-2.022-.669-5.685-2.286-6.894a1.893,1.893,0,0,0-1.749-.308,3.693,3.693,0,0,0-.741.412l-.244-.368a3.89,3.89,0,0,1,.865-.468,2.343,2.343,0,0,1,2.134.376c1.757,1.313,2.438,5.048,2.466,7.238a1.217,1.217,0,0,1-.685,1.109A7,7,0,0,1,151.4,111.208Z" transform="translate(-148.95 -101.687)"/></g><g transform="translate(10.69 18.131)"><path class="g" d="M97.711,123.463c.4,1.785-.3,3.463-1.573,3.751s-2.634-.925-3.038-2.706.3-3.463,1.573-3.751S97.306,121.681,97.711,123.463Z" transform="translate(-92.985 -120.714)"/></g><g transform="translate(10.584 17.913)"><path class="b" d="M95.59,127.151a2.438,2.438,0,0,1-1.609-.677,4.26,4.26,0,0,1-1.261-2.246l.428-.1a3.817,3.817,0,0,0,1.125,2.014,1.708,1.708,0,0,0,2.91-.661,4.076,4.076,0,0,0-.977-4.315,1.857,1.857,0,0,0-1.649-.524l-.1-.428a2.291,2.291,0,0,1,2.042.629,4.527,4.527,0,0,1,1.093,4.816,2.081,2.081,0,0,1-2.006,1.489Z" transform="translate(-92.72 -120.169)"/></g><g transform="translate(30.779 30.796)"><path class="g" d="M147.847,156.63c-.909,1.589-2.562,2.35-3.695,1.7s-1.317-2.462-.412-4.047,2.562-2.35,3.695-1.7S148.756,155.041,147.847,156.63Z" transform="translate(-143.166 -152.352)"/></g><g transform="translate(30.558 30.832)"><path class="b" d="M144.719,158.837a2.021,2.021,0,0,1-1-.26,2.288,2.288,0,0,1-1.081-1.841,4.274,4.274,0,0,1,.588-2.51l.384.22a3.835,3.835,0,0,0-.532,2.246,1.71,1.71,0,0,0,2.594,1.481,3.85,3.85,0,0,0,1.665-1.6c.845-1.481.7-3.163-.328-3.747l.22-.384c1.237.709,1.457,2.658.492,4.351a4.253,4.253,0,0,1-1.861,1.781A2.789,2.789,0,0,1,144.719,158.837Z" transform="translate(-142.615 -152.44)"/></g><g transform="translate(21.273)"><path class="b" d="M123.671,88.724q-.282,0-.576-.024l.04-.436c4.027.352,6.081-3.419,6.1-3.459,2.138-4.576.352-6.99-.9-8.018a3.888,3.888,0,0,0-1.9-.833,5.472,5.472,0,0,0-6.521,4.516,8.288,8.288,0,0,0,3.423.761l.02.44a8.622,8.622,0,0,1-3.791-.877l-.144-.072.024-.16c.008-.06,1.033-5.969,7.054-5.04a4.406,4.406,0,0,1,2.114.929c1.353,1.113,3.287,3.7,1.017,8.555C129.6,85.049,127.607,88.724,123.671,88.724Z" transform="translate(-119.42 -75.423)"/></g><g transform="translate(44.515 37.493)"><path class="b" d="M177.7,175.661l-.22-.38,4.688-2.7c.024-.016.681-.412.444-.925a7.7,7.7,0,0,0-1.489-2.274l.32-.3a8.154,8.154,0,0,1,1.569,2.39,1.208,1.208,0,0,1-.621,1.489Z" transform="translate(-177.48 -169.08)"/></g><g transform="translate(23.438 38.59)"><path class="b" d="M127.131,176.268a2.582,2.582,0,0,1-1.733-1.017,4.17,4.17,0,0,1-.4-3.431l.428.1a3.766,3.766,0,0,0,.316,3.07,2.173,2.173,0,0,0,1.421.845Z" transform="translate(-124.828 -171.82)"/></g><g transform="translate(25.893 32.409)"><path class="b" d="M131.28,158.418l-.32-.3,1.633-1.733.32.3Z" transform="translate(-130.96 -156.38)"/></g><g transform="translate(20.714 47.433)"><g transform="translate(0 0)"><rect class="b" width="1.669" height="0.44" transform="translate(0 0.918) rotate(-33.382)"/></g></g><g transform="translate(0.558 59.125)"><g transform="translate(0.262 0.135)"><path class="a" d="M80.2,226.089l.552-.548-2.818-1.553a2.67,2.67,0,0,0-.645-.356l0,0h0a4.135,4.135,0,0,0-3.471.572,12.124,12.124,0,0,0-5.484,9.5,3.929,3.929,0,0,0,1.489,3.471v0l.032.016a2.126,2.126,0,0,0,.208.116l3.038,1.717a11.315,11.315,0,0,0,1.633-1.409c.056-.1.52-1.073,1.157-2.414a12.545,12.545,0,0,0,3.383-7.15C79.823,226.886,80.2,226.089,80.2,226.089Z" transform="translate(-68.33 -223.452)"/></g><g transform="translate(1.065 0)"><g transform="translate(0)"><ellipse class="b" cx="7.758" cy="4.48" rx="7.758" ry="4.48" transform="matrix(0.5, -0.866, 0.866, 0.5, 0, 13.437)"/><g transform="translate(2.055 1.649)"><path class="b" d="M78.725,241.849a3.033,3.033,0,0,1-1.537-.4,4.061,4.061,0,0,1-1.717-3.743,12.384,12.384,0,0,1,5.6-9.692,3.558,3.558,0,0,1,5.817,3.359,12.384,12.384,0,0,1-5.6,9.692A5.232,5.232,0,0,1,78.725,241.849Zm4.9-14.171a4.79,4.79,0,0,0-2.338.721,11.908,11.908,0,0,0-5.376,9.311,3.131,3.131,0,0,0,5.156,2.978,11.908,11.908,0,0,0,5.376-9.311,3.659,3.659,0,0,0-1.5-3.363A2.625,2.625,0,0,0,83.625,227.678Z" transform="translate(-75.47 -227.236)"/></g></g><g transform="translate(4.156 4.303)"><path class="c" d="M87.926,236.438a7.965,7.965,0,0,1-3.6,6.241c-1.99,1.149-3.6.216-3.6-2.082a7.965,7.965,0,0,1,3.6-6.241C86.312,233.211,87.926,234.14,87.926,236.438Z" transform="translate(-80.72 -233.866)"/></g></g><g transform="translate(0 7.376)"><path class="b" d="M72.974,250.239l-3.507-1.934a1.667,1.667,0,0,1-.324-.228c-2.582-2.374-.985-6.369-.913-6.537l.408.168c-.016.04-1.549,3.879.8,6.045a1.232,1.232,0,0,0,.236.168l3.507,1.934Z" transform="translate(-67.676 -241.54)"/></g></g><g transform="translate(0 53.415)"><g transform="translate(0.148)"><g transform="translate(0 0.21)"><path class="a" d="M76.623,209.948c-.068-.044-.144-.088-.22-.128l-.024-.012h0a4.026,4.026,0,0,0-1.3-.392c-4.351-.6-7.558,6.361-8.323,8.191-.144.344-.184.845.14,1.033l4.5,2.614,4.868-5.4c.136.136.26.268.368.392a.483.483,0,0,0,.825-.168A11.885,11.885,0,0,0,77.936,214l.34-.38,2.446.164.452-1.2Z" transform="translate(-66.651 -209.38)"/><g transform="translate(4.28 2.39)"><g transform="translate(0.219 0.224)"><path class="c" d="M78.139,225.169c-.324-.188-.284-.689-.14-1.033.765-1.829,3.975-8.787,8.323-8.191,3.891.532,2.974,4.8,2.378,6.665a.483.483,0,0,1-.825.168c-1.169-1.377-4.287-3.791-8.759,2.322C79.12,225.1,78.815,225.566,78.139,225.169Z" transform="translate(-77.891 -215.91)"/></g><path class="b" d="M78.323,225.215a1.231,1.231,0,0,1-.625-.192h0a1.036,1.036,0,0,1-.232-1.309c.881-2.106,4.083-8.943,8.559-8.323a3.363,3.363,0,0,1,2.534,1.473c1.025,1.629.456,4.127.024,5.472a.7.7,0,0,1-1.2.24,3.944,3.944,0,0,0-3.118-1.569c-1.673.06-3.455,1.365-5.292,3.879A.762.762,0,0,1,78.323,225.215Zm-.4-.568c.46.268.653.044.685,0,1.926-2.634,3.819-4,5.637-4.067a4.509,4.509,0,0,1,3.471,1.721.253.253,0,0,0,.248.084.258.258,0,0,0,.2-.176c.408-1.273.953-3.627.024-5.1a2.936,2.936,0,0,0-2.222-1.273c-4.247-.576-7.486,6.609-8.09,8.058-.12.288-.136.653.048.761Z" transform="translate(-77.343 -215.351)"/></g></g><g transform="translate(3.006)"><path class="b" d="M85.213,212.263l-4.44-2.578c-3.459-1.625-6.221,2.35-6.249,2.39l-.364-.248c.028-.044,3-4.327,6.813-2.534l4.46,2.59Z" transform="translate(-74.16 -208.854)"/></g></g><g transform="translate(0 6.976)"><path class="b" d="M71.068,231.58l-4.211-2.442a1.192,1.192,0,0,1-.476-1.5l.584-1.357.4.172-.584,1.357a.747.747,0,0,0,.276.937l4.227,2.454Z" transform="translate(-66.281 -226.28)"/></g></g><g transform="translate(21.686 5.419)"><path class="d" d="M120.924,92.627a3.709,3.709,0,0,1-.02-3.667l.4.184a3.289,3.289,0,0,0-.02,3.227Z" transform="translate(-120.453 -88.96)"/></g><g transform="translate(18.547 30.303)"><path class="c" d="M112.942,152.653l-.332-.288a8.719,8.719,0,0,1,1.349-1.245l.264.352A8.214,8.214,0,0,0,112.942,152.653Z" transform="translate(-112.61 -151.12)"/></g><g transform="translate(16.579 32.441)"><path class="c" d="M107.7,160.968a7.679,7.679,0,0,1,1.285-4.508l.368.24a7.322,7.322,0,0,0-1.213,4.227Z" transform="translate(-107.695 -156.46)"/></g><g transform="translate(25.608 42.612)"><g transform="translate(0 0)"><rect class="b" width="0.44" height="5.356" transform="matrix(0.523, -0.852, 0.852, 0.523, 0, 0.375)"/></g></g><g transform="translate(22.005 10.131)"><path class="b" d="M121.59,102.359a6.418,6.418,0,0,1-.34-1.585l.436-.044a6.13,6.13,0,0,0,.3,1.437Z" transform="translate(-121.25 -100.73)"/></g></g><g transform="translate(51.19 91.869)"><path class="c" d="M114.336,233.329H114.3l.012-.3A3.556,3.556,0,0,0,118,229.49l.3.024A3.889,3.889,0,0,1,114.336,233.329Z" transform="translate(-114.3 -229.49)"/></g><g transform="translate(70.521 82.986)"><path class="c" d="M163.174,210.25l-.276-.124a2.108,2.108,0,0,0-.308-2.594l.188-.232A2.43,2.43,0,0,1,163.174,210.25Z" transform="translate(-162.59 -207.3)"/></g></g></svg>