<svg width="22" height="22" viewBox="0 0 22 22" fill="none" xmlns="http://www.w3.org/2000/svg">
<g clip-path="url(#clip0_5_33)">
<mask id="mask0_5_33" style="mask-type:alpha" maskUnits="userSpaceOnUse" x="0" y="0" width="22" height="22">
<path d="M21.365 10.365H19.674C19.519 8.28431 18.6223 6.32838 17.147 4.85304C15.6716 3.3777 13.7157 2.48097 11.635 2.326V0.634001C11.6347 0.465762 11.5677 0.304502 11.4487 0.185633C11.3296 0.0667633 11.1682 -2.08617e-07 11 0C10.8316 0 10.6701 0.0669019 10.551 0.185987C10.4319 0.305073 10.365 0.466588 10.365 0.635V2.327C8.28431 2.48197 6.32838 3.3787 4.85304 4.85404C3.3777 6.32938 2.48097 8.28531 2.326 10.366H0.635C0.466761 10.366 0.305397 10.4328 0.18634 10.5516C0.0672834 10.6705 0.000264944 10.8318 0 11C0 11.1684 0.0669016 11.3299 0.185987 11.449C0.305073 11.5681 0.466588 11.635 0.635 11.635H2.326C2.48097 13.7157 3.3777 15.6716 4.85304 17.147C6.32838 18.6223 8.28431 19.519 10.365 19.674V21.366C10.3653 21.5342 10.4323 21.6955 10.5513 21.8144C10.6704 21.9332 10.8318 22 11 22C11.1684 22 11.3299 21.9331 11.449 21.814C11.5681 21.6949 11.635 21.5334 11.635 21.365V19.674C13.7157 19.519 15.6716 18.6223 17.147 17.147C18.6223 15.6716 19.519 13.7157 19.674 11.635H21.366C21.5342 11.6347 21.6955 11.5677 21.8144 11.4487C21.9332 11.3296 22 11.1682 22 11C22 10.8316 21.9331 10.6701 21.814 10.551C21.6949 10.4319 21.5334 10.365 21.365 10.365V10.365ZM11.635 18.4V16.759C11.6347 16.5908 11.5677 16.4295 11.4487 16.3106C11.3296 16.1918 11.1682 16.125 11 16.125C10.8316 16.125 10.6701 16.1919 10.551 16.311C10.4319 16.4301 10.365 16.5916 10.365 16.76V18.4C8.62191 18.2479 6.98819 17.4863 5.75095 16.249C4.51372 15.0118 3.75212 13.3781 3.6 11.635H5.241C5.40924 11.6347 5.5705 11.5677 5.68937 11.4487C5.80824 11.3296 5.875 11.1682 5.875 11C5.875 10.8316 5.8081 10.6701 5.68901 10.551C5.56993 10.4319 5.40841 10.365 5.24 10.365H3.6C3.75212 8.62191 4.51372 6.98819 5.75095 5.75096C6.98819 4.51372 8.62191 3.75212 10.365 3.6V5.241C10.365 5.40941 10.4319 5.57093 10.551 5.69001C10.6701 5.8091 10.8316 5.876 11 5.876C11.1684 5.876 11.3299 5.8091 11.449 5.69001C11.5681 5.57093 11.635 5.40941 11.635 5.241V3.6C13.3781 3.75212 15.0118 4.51372 16.249 5.75096C17.4863 6.98819 18.2479 8.62191 18.4 10.365H16.759C16.5906 10.365 16.4291 10.4319 16.31 10.551C16.1909 10.6701 16.124 10.8316 16.124 11C16.124 11.1684 16.1909 11.3299 16.31 11.449C16.4291 11.5681 16.5906 11.635 16.759 11.635H18.4C18.2479 13.3781 17.4863 15.0118 16.249 16.249C15.0118 17.4863 13.3781 18.2479 11.635 18.4V18.4ZM11 13C11.5304 13 12.0391 12.7893 12.4142 12.4142C12.7893 12.0391 13 11.5304 13 11C13 10.4696 12.7893 9.96086 12.4142 9.58579C12.0391 9.21071 11.5304 9 11 9C10.4696 9 9.96086 9.21071 9.58579 9.58579C9.21071 9.96086 9 10.4696 9 11C9 11.5304 9.21071 12.0391 9.58579 12.4142C9.96086 12.7893 10.4696 13 11 13Z" fill="white"/>
</mask>
<g mask="url(#mask0_5_33)">
<path d="M-6 -6H28V28H-6V-6Z" fill="white"/>
</g>
</g>
<defs>
<clipPath id="clip0_5_33">
<rect width="22" height="22" fill="white"/>
</clipPath>
</defs>
</svg>
